# Blender 5.1.2
# www.blender.org
mtllib cypher_cam.mtl
o lcctv_ref
v -0.170893 -0.119572 0.036122
v -0.170893 0.119572 0.036122
v -0.170893 -0.119572 -0.000639
v -0.170893 0.119572 -0.000639
v 0.170893 -0.119572 0.036122
v 0.170893 0.119572 0.036122
v 0.170893 -0.119572 -0.000639
v 0.170893 0.119572 -0.000639
v -0.082878 -0.084116 0.036122
v -0.082878 0.068939 0.036122
v 0.082878 -0.084116 0.036122
v 0.082878 0.068939 0.036122
v -0.082878 0.010886 0.520973
v -0.082878 0.068939 0.520973
v 0.082878 0.010886 0.520973
v 0.082878 0.068939 0.520973
v -0.043760 0.010886 0.656230
v -0.082878 0.010886 0.617112
v -0.082878 0.068939 0.617112
v -0.043760 0.068939 0.656230
v 0.082878 0.010886 0.617112
v 0.043760 0.010886 0.656230
v 0.043760 0.068939 0.656230
v 0.082878 0.068939 0.617112
v 0.000000 0.068939 0.515662
v -0.046552 0.068939 0.538081
v -0.058050 0.068939 0.588454
v -0.025835 0.068939 0.628851
v 0.025835 0.068939 0.628851
v 0.058050 0.068939 0.588454
v 0.046552 0.068939 0.538081
v -0.046552 0.095193 0.538081
v 0.000000 0.095193 0.515662
v -0.058050 0.095193 0.588454
v -0.025835 0.095193 0.628851
v 0.025835 0.095193 0.628851
v 0.058050 0.095193 0.588454
v 0.046552 0.095193 0.538081
v -0.034829 0.152767 0.547430
v 0.000000 0.152767 0.530657
v -0.043431 0.152767 0.585118
v -0.019329 0.152767 0.615341
v 0.019329 0.152767 0.615341
v 0.043431 0.152767 0.585118
v 0.034829 0.152767 0.547430
v -0.134327 0.105568 0.036122
v -0.152888 0.087007 0.036122
v -0.134327 0.068446 0.036122
v -0.115766 0.087007 0.036122
v -0.148203 0.087007 0.043865
v -0.134327 0.100883 0.043865
v -0.134327 0.073131 0.043865
v -0.120451 0.087007 0.043865
v 0.134327 0.105568 0.036122
v 0.152888 0.087007 0.036122
v 0.134327 0.068446 0.036122
v 0.115766 0.087007 0.036122
v 0.148203 0.087007 0.043865
v 0.134327 0.100883 0.043865
v 0.134327 0.073131 0.043865
v 0.120451 0.087007 0.043865
v -0.134327 -0.105568 0.036122
v -0.152888 -0.087007 0.036122
v -0.134327 -0.068446 0.036122
v -0.115766 -0.087007 0.036122
v -0.148203 -0.087007 0.043865
v -0.134327 -0.100883 0.043865
v -0.134327 -0.073131 0.043865
v -0.120451 -0.087007 0.043865
v 0.134327 -0.105568 0.036122
v 0.152888 -0.087007 0.036122
v 0.134327 -0.068446 0.036122
v 0.115766 -0.087007 0.036122
v 0.148203 -0.087007 0.043865
v 0.134327 -0.100883 0.043865
v 0.134327 -0.073131 0.043865
v 0.120451 -0.087007 0.043865
v -0.314786 0.159771 0.664307
v 0.084110 0.422826 0.265411
v 0.055974 0.539103 0.313956
v 0.060679 0.547028 0.323887
v 0.142975 0.297442 0.241591
v 0.133053 0.305368 0.236896
v -0.338216 0.283972 0.722783
v -0.342922 0.276048 0.712852
v -0.265843 0.042313 0.635792
v -0.255921 0.034386 0.640487
v -0.092512 0.159771 0.886581
v 0.306384 0.422826 0.487686
v 0.257839 0.539103 0.515821
v 0.247908 0.547027 0.511116
v 0.330204 0.297442 0.428820
v 0.334899 0.305368 0.438742
v -0.150988 0.283972 0.910011
v -0.141057 0.276048 0.914717
v -0.063997 0.042313 0.837638
v -0.068692 0.034386 0.827716
v -0.244063 0.282337 0.815858
v -0.277750 0.272961 0.775987
v -0.300125 0.246258 0.736002
v -0.307782 0.206294 0.701992
v -0.299554 0.159154 0.679132
v -0.276695 0.112013 0.670904
v -0.242684 0.072050 0.678561
v -0.202699 0.045347 0.700936
v -0.162828 0.035970 0.734623
v -0.129141 0.045347 0.774495
v -0.106766 0.072050 0.814479
v -0.099109 0.112013 0.848490
v -0.107337 0.159154 0.871349
v -0.130196 0.206294 0.879577
v -0.164207 0.246258 0.871921
v -0.204192 0.272961 0.849546
v -0.274158 0.243939 0.786577
v -0.246966 0.251508 0.818761
v -0.292219 0.222385 0.754302
v -0.298400 0.190126 0.726849
v -0.291758 0.152075 0.708397
v -0.273306 0.114023 0.701755
v -0.245853 0.081765 0.707936
v -0.213578 0.060211 0.725997
v -0.181394 0.052642 0.753189
v -0.154202 0.060211 0.785373
v -0.136141 0.081765 0.817648
v -0.129960 0.114023 0.845101
v -0.136602 0.152075 0.863553
v -0.155054 0.190126 0.870195
v -0.182507 0.222385 0.864014
v -0.214782 0.243939 0.845953
v -0.288485 0.265882 0.786721
v -0.254797 0.275258 0.826592
v -0.310860 0.239179 0.746737
v -0.318516 0.199215 0.712726
v -0.310289 0.152075 0.689866
v -0.287429 0.104934 0.681639
v -0.253418 0.064971 0.689295
v -0.213434 0.038268 0.711670
v -0.173563 0.028891 0.745358
v -0.139875 0.038268 0.785229
v -0.117500 0.064971 0.825213
v -0.109844 0.104934 0.859224
v -0.118071 0.152075 0.882084
v -0.140931 0.199215 0.890311
v -0.174942 0.239179 0.882655
v -0.214926 0.265882 0.860280
v -0.274137 0.230528 0.792622
v -0.249723 0.237323 0.821518
v -0.290353 0.211175 0.763644
v -0.295902 0.182212 0.738995
v -0.289939 0.148048 0.722428
v -0.273372 0.113884 0.716465
v -0.248723 0.084921 0.722014
v -0.219745 0.065568 0.738230
v -0.190849 0.058773 0.762645
v -0.166435 0.065568 0.791540
v -0.150219 0.084921 0.820518
v -0.144670 0.113884 0.845167
v -0.150633 0.148048 0.861734
v -0.167200 0.182212 0.867697
v -0.191849 0.211175 0.862148
v -0.220827 0.230528 0.845932
v -0.263424 0.251018 0.775843
v -0.236232 0.258587 0.808027
v -0.281485 0.229463 0.743568
v -0.287665 0.197205 0.716115
v -0.281024 0.159154 0.697663
v -0.262572 0.121102 0.691021
v -0.235119 0.088844 0.697202
v -0.202843 0.067290 0.715263
v -0.170660 0.059721 0.742455
v -0.143468 0.067290 0.774638
v -0.125406 0.088844 0.806914
v -0.119226 0.121102 0.834367
v -0.125867 0.159154 0.852819
v -0.144319 0.197205 0.859460
v -0.171773 0.229463 0.853280
v -0.204048 0.251018 0.835219
v -0.367639 0.148401 0.895370
v -0.347459 0.154018 0.919254
v -0.381042 0.132406 0.871419
v -0.385629 0.108466 0.851045
v -0.380700 0.080228 0.837352
v -0.367007 0.051990 0.832423
v -0.346633 0.028050 0.837010
v -0.322681 0.012054 0.850413
v -0.298798 0.006438 0.870593
v -0.278618 0.012054 0.894476
v -0.265215 0.028050 0.918428
v -0.260628 0.051989 0.938802
v -0.265557 0.080228 0.952495
v -0.279250 0.108466 0.957424
v -0.299624 0.132406 0.952837
v -0.323575 0.148401 0.939434
v -0.376979 0.162707 0.895464
v -0.352565 0.169503 0.924360
v -0.393195 0.143355 0.866486
v -0.398744 0.114392 0.841837
v -0.392781 0.080228 0.825270
v -0.376214 0.046064 0.819307
v -0.351566 0.017101 0.824856
v -0.322587 -0.002252 0.841072
v -0.293692 -0.009047 0.865487
v -0.269277 -0.002252 0.894383
v -0.253061 0.017101 0.923361
v -0.247512 0.046064 0.948010
v -0.253475 0.080228 0.964577
v -0.270042 0.114392 0.970539
v -0.294691 0.143355 0.964990
v -0.323669 0.162708 0.948774
v -0.338009 0.167941 0.865741
v -0.317830 0.173558 0.889625
v -0.351413 0.151945 0.841789
v -0.355999 0.128006 0.821416
v -0.351071 0.099767 0.807722
v -0.337377 0.071529 0.802794
v -0.317004 0.047590 0.807380
v -0.293052 0.031594 0.820783
v -0.269168 0.025977 0.840963
v -0.248988 0.031594 0.864847
v -0.235585 0.047590 0.888799
v -0.230999 0.071529 0.909172
v -0.235927 0.099767 0.922866
v -0.249621 0.128006 0.927794
v -0.269994 0.151945 0.923208
v -0.293946 0.167941 0.909804
v -0.304890 0.092256 0.876685
v -0.084848 0.080535 0.568969
v -0.149504 0.088777 0.581948
v -0.001796 0.135304 0.485917
v -0.007147 0.182656 0.439591
v 0.002826 0.080535 0.656643
v -0.010153 0.088777 0.721299
v 0.085878 0.135304 0.573591
v 0.132204 0.182656 0.578942
vn -1.0000 -0.0000 -0.0000
vn 1.0000 -0.0000 -0.0000
vn -0.0000 -0.0000 1.0000
vn -0.0000 -1.0000 -0.0000
vn -0.0000 1.0000 -0.0000
vn 0.9239 -0.0000 0.3827
vn -0.0000 -0.9813 0.1923
vn -0.0000 -0.9953 0.0966
vn 0.3827 -0.0000 0.9239
vn -0.3827 -0.0000 0.9239
vn -0.9239 -0.0000 0.3827
vn -0.7759 0.1228 -0.6188
vn -0.9435 0.2520 0.2153
vn -0.7566 0.2520 -0.6034
vn -0.9749 -0.0000 0.2225
vn -0.7818 -0.0000 -0.6235
vn -0.0000 -0.0000 -1.0000
vn 0.7759 0.1228 -0.6188
vn 0.7818 -0.0000 -0.6235
vn 0.9749 -0.0000 0.2225
vn 0.4306 0.1228 0.8941
vn 0.4339 -0.0000 0.9010
vn -0.4339 -0.0000 0.9010
vn -0.9675 0.1228 0.2208
vn -0.0000 0.1228 -0.9924
vn 0.9675 0.1228 0.2208
vn -0.4306 0.1228 0.8941
vn 0.7566 0.2520 -0.6034
vn 0.9435 0.2520 0.2153
vn 0.4199 0.2520 0.8719
vn -0.0000 0.2520 -0.9677
vn -0.4199 0.2520 0.8719
vn -0.6320 -0.0000 0.7749
vn 0.6320 -0.0000 0.7749
vn -0.0000 0.6321 0.7749
vn -0.0000 -0.8556 0.5177
vn -0.0000 -0.6321 0.7749
vn -0.0000 0.8556 0.5177
vn 0.8556 -0.0000 0.5177
vn -0.8556 -0.0000 0.5177
vn 0.6321 -0.0000 0.7749
vn -0.6321 -0.0000 0.7749
vn -0.0377 0.8511 0.5236
vn -0.5236 0.8511 0.0377
vn 0.5238 -0.8510 -0.0374
vn 0.0374 -0.8510 -0.5238
vn -0.6697 -0.1004 -0.7359
vn -0.4834 -0.4264 -0.7646
vn -0.4834 -0.4263 -0.7646
vn 0.6409 0.4226 -0.6409
vn -0.7645 0.4271 -0.4828
vn -0.7361 0.1013 -0.6693
vn 0.7646 -0.4264 0.4834
vn 0.7359 -0.1004 0.6697
vn 0.7646 -0.4263 0.4834
vn 0.4829 0.4271 0.7645
vn 0.6693 0.1013 0.7361
vn -0.6409 -0.4226 0.6409
vn -0.6408 -0.4226 0.6409
vn -0.2989 0.9063 0.2988
vn -0.0055 0.8373 0.5467
vn -0.7113 0.6409 -0.2887
vn -0.5467 0.8373 0.0055
vn 0.7113 -0.6408 0.2887
vn 0.5467 -0.8373 -0.0055
vn -0.7676 0.3468 -0.5389
vn 0.7676 -0.3468 0.5390
vn 0.7113 -0.6409 0.2887
vn -0.7071 -0.0000 -0.7071
vn 0.7071 -0.0000 0.7071
vn 0.7676 -0.3468 0.5389
vn -0.5389 -0.3469 -0.7676
vn 0.5389 0.3468 0.7677
vn -0.2887 -0.6409 -0.7113
vn 0.2887 0.6408 0.7113
vn 0.0055 -0.8373 -0.5467
vn -0.2887 -0.6408 -0.7113
vn 0.2988 -0.9063 -0.2988
vn -0.2988 0.9063 0.2988
vn -0.6409 -0.4226 0.6408
vn 0.2988 -0.9063 -0.2989
vn -0.2988 0.9063 0.2989
vn 0.5389 0.3468 0.7676
vn -0.5389 -0.3468 -0.7676
vn 0.2887 0.6409 0.7113
vn -0.5263 0.6678 0.5263
vn -0.7543 0.6044 0.2565
vn -0.9057 0.4237 -0.0141
vn -0.9575 0.1532 -0.2443
vn -0.9018 -0.1658 -0.3990
vn -0.7471 -0.4848 -0.4547
vn -0.5170 -0.7553 -0.4029
vn -0.2463 -0.9360 -0.2515
vn 0.0235 -0.9994 -0.0235
vn 0.2515 -0.9360 0.2463
vn 0.4029 -0.7553 0.5170
vn 0.4028 -0.7553 0.5170
vn 0.4547 -0.4848 0.7471
vn 0.3990 -0.1658 0.9018
vn 0.2443 0.1532 0.9575
vn 0.0141 0.4237 0.9057
vn -0.2565 0.6044 0.7543
vn -0.5112 -0.3389 0.7898
vn -0.5645 -0.2762 0.7778
vn -0.7113 0.6408 -0.2887
vn -0.6877 -0.5496 0.4744
vn -0.6249 -0.5915 0.5095
vn -0.6273 -0.2343 0.7427
vn -0.5624 -0.6062 0.5624
vn -0.6898 -0.2196 0.6898
vn -0.7427 -0.2343 0.6273
vn -0.5095 -0.5915 0.6249
vn -0.7778 -0.2762 0.5645
vn -0.4744 -0.5496 0.6877
vn -0.7898 -0.3389 0.5112
vn -0.4624 -0.4869 0.7411
vn -0.7769 -0.4129 0.4753
vn -0.4753 -0.4129 0.7769
vn -0.7411 -0.4869 0.4624
vn -0.2257 -0.6942 -0.6835
vn 0.6032 -0.5219 -0.6032
vn 0.6835 -0.6942 0.2257
vn -0.1050 -0.9889 0.1050
vn 0.6408 0.4226 -0.6409
vn -0.7645 0.4270 -0.4829
vt 0.732916 0.637242
vt 0.747010 0.588999
vt 0.732916 0.588999
vt 0.747010 0.706192
vt 0.732916 0.754436
vt 0.747010 0.754436
vt 0.728462 0.703154
vt 0.519689 0.494382
vt 0.519689 0.703154
vt 0.747010 0.520049
vt 0.747010 0.637242
vt 0.732916 0.706192
vt 0.617743 0.480197
vt 0.667844 0.781376
vt 0.535753 0.781376
vt 0.682558 0.484425
vt 0.565813 0.484425
vt 0.513633 0.550542
vt 0.740856 0.679988
vt 0.684122 0.572252
vt 0.684122 0.679988
vt 0.743888 0.559998
vt 0.511963 0.781103
vt 0.743888 0.781103
vt 0.651476 0.572252
vt 0.599828 0.679988
vt 0.651476 0.679988
vt 0.599828 0.572252
vt 0.567182 0.679988
vt 0.567182 0.572252
vt 0.510448 0.679988
vt 0.486886 0.253851
vt 0.441531 0.224866
vt 0.482603 0.224866
vt 0.572750 0.500436
vt 0.539934 0.461722
vt 0.539934 0.500436
vt 0.736828 0.500436
vt 0.704012 0.461722
vt 0.704012 0.500436
vt 0.671197 0.500436
vt 0.638381 0.461722
vt 0.638381 0.500436
vt 0.605565 0.500436
vt 0.572750 0.461722
vt 0.507119 0.461722
vt 0.507119 0.500436
vt 0.671197 0.461722
vt 0.605565 0.461722
vt 0.455078 0.253851
vt 0.493035 0.224866
vt 0.498405 0.253851
vt 0.402404 0.253851
vt 0.408593 0.224866
vt 0.440002 0.253851
vt 0.411751 0.253851
vt 0.455078 0.224866
vt 0.431033 0.253851
vt 0.476142 0.224866
vt 0.434014 0.224866
vt 0.536622 0.513972
vt 0.567446 0.544795
vt 0.567446 0.513972
vt 0.608835 0.511010
vt 0.616191 0.508108
vt 0.608835 0.508108
vt 0.616191 0.497849
vt 0.608835 0.500752
vt 0.616191 0.500752
vt 0.619094 0.508108
vt 0.605933 0.508108
vt 0.605933 0.500752
vt 0.536622 0.544795
vt 0.616191 0.511010
vt 0.608835 0.497849
vt 0.619094 0.500752
vt 0.516457 0.502622
vt 0.516457 0.548805
vt 0.739641 0.548805
vt 0.363769 0.336753
vt 0.458386 0.431371
vt 0.458386 0.336753
vt 0.456510 0.336753
vt 0.361893 0.431371
vt 0.456510 0.431371
vt 0.001209 0.231391
vt 0.994047 0.441979
vt 0.001209 0.441979
vt 0.435974 -0.000011
vt 0.000096 0.920982
vt 0.435973 0.999802
vt 0.001209 0.463844
vt 0.994047 0.463844
vt 0.994047 0.001018
vt 0.001209 0.022898
vt 0.001209 0.001018
vt 0.994047 0.231391
vt 0.996707 0.442814
vt 0.001343 0.231811
vt 0.001343 0.442814
vt 0.001343 0.464723
vt 0.996707 0.464723
vt 0.001343 0.022906
vt 0.996707 0.000983
vt 0.001343 0.000984
vt 0.996707 0.022906
vt 0.837378 0.241054
vt 0.594669 0.138950
vt 0.573897 0.241054
vt 0.421701 0.114890
vt 0.436509 0.078545
vt 0.422023 0.078545
vt 0.142825 0.252188
vt 0.167156 0.281228
vt 0.167156 0.252188
vt 0.337474 0.252188
vt 0.361805 0.281228
vt 0.361805 0.252188
vt 0.118494 0.252188
vt 0.142825 0.281228
vt 0.313143 0.252188
vt 0.337474 0.281228
vt 0.094162 0.252188
vt 0.118494 0.281228
vt 0.288812 0.252188
vt 0.313143 0.281228
vt 0.069831 0.252188
vt 0.094162 0.281228
vt 0.264481 0.252188
vt 0.288812 0.281228
vt 0.045500 0.252188
vt 0.069831 0.281228
vt 0.240149 0.252188
vt 0.264481 0.281228
vt 0.410467 0.252188
vt 0.434799 0.281228
vt 0.434799 0.252188
vt 0.215818 0.252188
vt 0.240149 0.281228
vt 0.386136 0.252188
vt 0.410467 0.281228
vt 0.191487 0.281228
vt 0.191487 0.252188
vt 0.215818 0.281228
vt 0.386136 0.281228
vt 0.746895 0.240886
vt 0.734701 0.296758
vt 0.746895 0.296758
vt 0.759088 0.240886
vt 0.759088 0.296758
vt 0.771282 0.240886
vt 0.771282 0.296758
vt 0.783476 0.296758
vt 0.783476 0.240886
vt 0.795669 0.240886
vt 0.795669 0.296758
vt 0.612766 0.240886
vt 0.600573 0.296758
vt 0.612766 0.296758
vt 0.624960 0.296758
vt 0.624960 0.240886
vt 0.637153 0.296758
vt 0.637153 0.240886
vt 0.649347 0.240886
vt 0.649347 0.296758
vt 0.661540 0.240886
vt 0.661540 0.296758
vt 0.673734 0.296758
vt 0.673734 0.240886
vt 0.685927 0.296758
vt 0.685927 0.240886
vt 0.698121 0.240886
vt 0.698121 0.296758
vt 0.710314 0.296758
vt 0.710314 0.240886
vt 0.722508 0.296758
vt 0.722508 0.240886
vt 0.734701 0.240886
vt 0.757964 0.841676
vt 0.950100 0.839720
vt 0.757964 0.839720
vt 0.419478 0.114890
vt 0.404671 0.078546
vt 0.404993 0.114890
vt 0.404671 0.151235
vt 0.419156 0.151235
vt 0.422023 0.151235
vt 0.436187 0.114890
vt 0.418239 0.047734
vt 0.419156 0.078546
vt 0.422941 0.182047
vt 0.436509 0.151235
vt 0.385559 0.083388
vt 0.401530 0.049706
vt 0.387069 0.049524
vt 0.222459 0.078109
vt 0.238430 0.051073
vt 0.223970 0.051255
vt 0.385028 0.120430
vt 0.400020 0.083570
vt 0.221929 0.112690
vt 0.236920 0.077927
vt 0.385559 0.155011
vt 0.399489 0.120612
vt 0.222459 0.149732
vt 0.236390 0.112508
vt 0.387069 0.181865
vt 0.400020 0.155192
vt 0.223970 0.183596
vt 0.236920 0.149550
vt 0.437426 0.047734
vt 0.422941 0.047734
vt 0.403753 0.182047
vt 0.418239 0.182047
vt 0.983825 0.600229
vt 0.954703 0.630485
vt 0.983825 0.630485
vt 0.954703 0.660742
vt 0.983825 0.660742
vt 0.954703 0.690998
vt 0.983825 0.690998
vt 0.954703 0.721254
vt 0.983825 0.721254
vt 0.983825 0.751510
vt 0.954703 0.751510
vt 0.954703 0.781766
vt 0.983825 0.781766
vt 0.983825 0.812022
vt 0.954703 0.812022
vt 0.983825 0.842279
vt 0.954703 0.842279
vt 0.954703 0.872535
vt 0.983825 0.872535
vt 0.954703 0.902791
vt 0.983825 0.902791
vt 0.969126 0.933047
vt 0.940004 0.933047
vt 0.957577 0.963303
vt 0.928455 0.963303
vt 0.979959 0.522794
vt 0.939288 0.492538
vt 0.950837 0.522794
vt 0.983825 0.539717
vt 0.954703 0.539717
vt 0.954703 0.569973
vt 0.983825 0.569973
vt 0.954703 0.600229
vt 0.775305 0.794385
vt 0.794157 0.790503
vt 0.775305 0.790503
vt 0.757964 0.857319
vt 0.950100 0.855364
vt 0.757964 0.855364
vt 0.757964 0.843631
vt 0.950100 0.841676
vt 0.757964 0.859275
vt 0.950100 0.857319
vt 0.757964 0.845587
vt 0.950100 0.843631
vt 0.757964 0.861230
vt 0.950100 0.859275
vt 0.757964 0.847542
vt 0.950100 0.845587
vt 0.757964 0.831898
vt 0.950100 0.829943
vt 0.757964 0.829943
vt 0.757964 0.849497
vt 0.950100 0.847542
vt 0.757964 0.833854
vt 0.950100 0.831898
vt 0.757964 0.851453
vt 0.950100 0.849497
vt 0.757964 0.835809
vt 0.950100 0.833854
vt 0.757964 0.853408
vt 0.950100 0.851453
vt 0.950100 0.837765
vt 0.757964 0.837765
vt 0.950100 0.835809
vt 0.950100 0.853408
vt 0.794864 0.759580
vt 0.777447 0.763045
vt 0.794864 0.763045
vt 0.794864 0.766510
vt 0.777447 0.766510
vt 0.794864 0.769975
vt 0.777447 0.769975
vt 0.794864 0.773441
vt 0.777447 0.773441
vt 0.777447 0.776906
vt 0.794864 0.776906
vt 0.777447 0.780371
vt 0.794864 0.780371
vt 0.777447 0.783836
vt 0.794864 0.783836
vt 0.777447 0.787302
vt 0.794864 0.787302
vt 0.794864 0.790767
vt 0.777447 0.790767
vt 0.794864 0.794232
vt 0.777447 0.794232
vt 0.794864 0.797697
vt 0.777447 0.797697
vt 0.794864 0.801163
vt 0.777447 0.801163
vt 0.794864 0.745719
vt 0.777447 0.749184
vt 0.794864 0.749184
vt 0.777447 0.752649
vt 0.794864 0.752649
vt 0.777447 0.756114
vt 0.794864 0.756114
vt 0.777447 0.759580
vt 0.669332 0.900012
vt 0.669332 0.877120
vt 0.611789 0.888566
vt 0.775305 0.767208
vt 0.794157 0.763325
vt 0.775305 0.763325
vt 0.775305 0.798267
vt 0.794157 0.794385
vt 0.775305 0.771090
vt 0.794157 0.767208
vt 0.775305 0.802150
vt 0.794157 0.798267
vt 0.775305 0.774973
vt 0.794157 0.771090
vt 0.775305 0.806032
vt 0.794157 0.802150
vt 0.775305 0.778855
vt 0.794157 0.774973
vt 0.775305 0.809915
vt 0.794157 0.806032
vt 0.794157 0.782738
vt 0.794157 0.778855
vt 0.775305 0.751678
vt 0.794157 0.747796
vt 0.775305 0.747796
vt 0.775305 0.782738
vt 0.794157 0.786620
vt 0.775305 0.755561
vt 0.794157 0.751678
vt 0.775305 0.786620
vt 0.794157 0.759443
vt 0.775305 0.759443
vt 0.794157 0.755561
vt 0.554247 0.900012
vt 0.563007 0.921161
vt 0.660572 0.855971
vt 0.579195 0.937348
vt 0.644385 0.839784
vt 0.623236 0.831024
vt 0.600344 0.946108
vt 0.600344 0.831024
vt 0.623236 0.946108
vt 0.579195 0.839784
vt 0.644385 0.937348
vt 0.563007 0.855971
vt 0.660572 0.921161
vt 0.554247 0.877120
vt 0.366885 0.246057
vt 0.423910 0.219977
vt 0.423910 0.246057
vt 0.475963 0.246057
vt 0.257807 0.219977
vt 0.314832 0.246057
vt 0.257807 0.246057
vt 0.314832 0.219977
vt 0.614940 0.247122
vt 0.728462 0.494382
vt 0.732916 0.520049
vt 0.667844 0.480197
vt 0.513633 0.713035
vt 0.734738 0.713035
vt 0.734738 0.550542
vt 0.740856 0.572252
vt 0.511963 0.559998
vt 0.510448 0.572252
vt 0.736828 0.461722
vt 0.417121 0.224866
vt 0.479123 0.253851
vt 0.516457 0.781718
vt 0.739641 0.781718
vt 0.739641 0.502622
vt 0.686970 0.483830
vt 0.569127 0.483830
vt 0.363769 0.431371
vt 0.361893 0.336753
vt 0.475156 0.983256
vt 0.498057 0.736523
vt 0.458770 0.999906
vt 0.475177 0.492272
vt 0.458769 0.475626
vt 0.000094 0.078807
vt 0.038986 0.475626
vt 0.022578 0.492272
vt -0.000302 0.736524
vt 0.022600 0.983256
vt 0.038986 0.999906
vt 0.876002 0.920982
vt 0.876002 0.078807
vt 0.994047 0.022898
vt 0.996707 0.231811
vt 0.825270 0.337614
vt 0.816607 0.344130
vt 0.825281 0.145465
vt 0.816607 0.138950
vt 0.585994 0.145465
vt 0.586005 0.337614
vt 0.594669 0.344130
vt 0.045500 0.281228
vt 0.600573 0.240886
vt 0.403753 0.047734
vt 0.437426 0.182047
vt 0.401530 0.182047
vt 0.238430 0.183414
vt 0.968410 0.492538
vt 0.950100 0.861230
vt 0.777447 0.745719
vt 0.794157 0.809915
vt 0.366885 0.219977
vt 0.475963 0.219977
s 1
usemtl lcctv
f 2/1/1 3/2/1 1/3/1
f 8/4/2 5/5/2 7/6/2
f 6/7/3 1/8/3 5/9/3
f 7/10/4 1/3/4 3/2/4
f 4/11/5 6/12/5 8/4/5
f 13/13/1 10/14/1 9/15/1
f 22/16/4 17/17/4 18/18/4
f 15/19/2 24/20/6 21/21/6
f 11/22/7 13/23/8 9/24/7
f 12/14/2 15/13/2 11/15/2
f 23/25/9 17/26/10 22/27/9
f 20/28/10 18/29/11 17/26/10
f 22/27/9 24/20/6 23/25/9
f 19/30/11 13/31/1 18/29/11
f 32/32/12 41/33/13 39/34/14
f 27/35/15 32/36/12 26/37/16
f 25/38/17 38/39/18 31/40/19
f 30/41/20 36/42/21 29/43/22
f 28/44/23 34/45/24 27/35/15
f 26/37/16 33/46/25 25/47/17
f 31/40/19 37/48/26 30/41/20
f 29/43/22 35/49/27 28/44/23
f 33/50/25 45/51/28 38/52/18
f 36/53/21 44/33/29 43/54/30
f 35/53/27 41/33/13 34/55/24
f 32/56/12 40/57/31 33/50/25
f 38/32/18 44/33/29 37/55/26
f 35/58/27 43/59/30 42/60/32
f 50/61/33 53/62/34 51/63/35
f 48/64/36 53/65/34 52/66/37
f 46/67/38 50/68/33 51/69/35
f 49/70/39 51/69/35 53/65/34
f 48/71/36 50/68/33 47/72/40
f 58/61/34 61/62/33 60/73/37
f 56/64/36 61/65/33 57/74/40
f 59/69/35 55/75/39 54/67/38
f 57/70/40 59/69/35 54/76/38
f 58/68/34 56/71/36 55/72/39
f 66/61/33 69/62/41 68/73/35
f 68/66/35 65/74/39 64/64/38
f 67/69/37 63/75/40 62/67/36
f 65/70/39 67/69/37 62/76/36
f 66/68/33 64/71/38 63/72/40
f 74/61/34 77/62/42 75/63/37
f 73/74/40 76/66/35 72/64/38
f 71/75/39 75/69/37 70/67/36
f 73/70/40 75/69/37 77/65/42
f 72/71/38 74/68/34 71/72/39
f 24/77/5 16/78/5 14/79/5
f 94/80/43 81/81/44 84/82/44
f 97/83/45 82/84/46 92/85/45
f 78/86/47 83/87/48 86/88/49
f 79/89/50 91/90/50 89/91/50
f 87/92/46 83/87/48 82/93/46
f 81/94/44 85/95/51 84/96/44
f 85/95/51 79/97/52 78/86/52
f 93/98/53 88/99/54 96/100/55
f 93/98/53 97/101/45 92/102/45
f 95/103/56 91/104/43 94/105/43
f 88/99/57 90/106/56 95/103/56
f 88/107/58 84/108/59 78/109/58
f 122/110/60 169/111/61 121/112/61
f 100/113/62 130/114/63 99/115/63
f 108/116/64 139/117/65 107/118/65
f 101/119/66 132/120/62 100/113/62
f 109/121/67 140/122/68 108/116/64
f 102/123/69 133/124/66 101/119/66
f 110/125/70 141/126/71 109/121/67
f 103/127/72 134/128/69 102/123/69
f 111/129/73 142/130/70 110/125/70
f 104/131/74 135/132/72 103/127/72
f 112/133/75 143/134/73 111/129/73
f 105/135/76 136/136/77 104/137/74
f 113/138/61 144/139/75 112/133/75
f 106/140/78 137/141/76 105/135/76
f 99/115/63 131/142/79 98/143/60
f 113/138/61 131/142/79 145/144/61
f 107/118/65 138/145/78 106/140/78
f 114/146/58 131/147/58 130/148/59
f 116/149/59 130/148/59 132/150/59
f 117/151/80 132/150/59 133/152/80
f 117/151/80 134/153/58 118/154/58
f 119/155/58 134/153/58 135/156/59
f 120/157/80 135/158/59 136/159/80
f 120/157/80 137/160/80 121/161/58
f 121/161/58 138/162/58 122/163/58
f 123/164/58 138/162/58 139/165/59
f 124/166/59 139/165/59 140/167/59
f 124/166/59 141/168/58 125/169/58
f 125/169/58 142/170/58 126/171/58
f 127/172/59 142/170/58 143/173/59
f 127/172/59 144/174/80 128/175/80
f 128/175/80 145/176/80 129/177/58
f 129/177/58 131/147/58 115/178/58
f 148/179/62 194/180/63 146/181/63
f 115/182/78 162/183/65 163/184/81
f 115/182/78 177/185/76 129/186/76
f 123/187/63 170/188/82 122/110/60
f 116/189/68 162/183/65 114/190/65
f 124/191/62 171/192/63 123/187/63
f 117/193/67 164/194/68 116/195/68
f 125/196/66 172/197/62 124/198/62
f 118/199/70 165/200/71 117/193/67
f 126/201/69 173/202/66 125/196/66
f 119/203/83 166/204/70 118/199/70
f 127/205/84 174/206/69 126/201/69
f 120/207/85 167/208/83 119/203/83
f 128/209/74 175/210/84 127/205/84
f 121/112/61 168/211/85 120/212/85
f 129/186/76 176/213/74 128/214/74
f 147/215/86 162/216/87 146/217/87
f 146/217/87 164/218/88 148/219/88
f 148/219/88 165/220/89 149/221/89
f 149/221/89 166/222/90 150/223/90
f 151/224/91 166/222/90 167/225/91
f 151/224/91 168/226/92 152/227/92
f 153/228/93 168/226/92 169/229/93
f 154/230/94 169/229/93 170/231/94
f 154/230/94 171/232/95 155/233/95
f 155/233/95 172/234/96 156/235/97
f 157/236/98 172/234/96 173/237/98
f 158/238/99 173/237/98 174/239/99
f 159/240/100 174/241/99 175/242/100
f 160/243/101 175/242/100 176/244/101
f 160/243/101 177/245/102 161/246/102
f 147/215/86 177/245/102 163/247/86
f 187/248/63 218/249/79 186/250/79
f 156/251/68 203/252/65 155/253/65
f 149/254/66 196/255/62 148/179/62
f 157/256/71 204/257/68 156/251/68
f 150/258/69 197/259/66 149/254/66
f 158/260/70 205/261/71 157/256/71
f 151/262/84 198/263/69 150/258/69
f 159/264/83 206/265/70 158/266/70
f 152/267/74 199/268/84 151/262/84
f 160/269/85 207/270/83 159/264/83
f 153/271/76 200/272/77 152/267/74
f 161/273/61 208/274/85 160/269/85
f 154/275/78 201/276/76 153/271/76
f 146/181/63 195/277/79 147/278/79
f 147/278/79 209/279/61 161/273/61
f 155/253/65 202/280/78 154/275/78
f 179/281/58 194/282/58 178/283/58
f 180/284/58 194/282/58 196/285/58
f 181/286/80 196/285/58 197/287/80
f 182/288/80 197/287/80 198/289/80
f 182/288/80 199/290/80 183/291/80
f 183/291/80 200/292/80 184/293/80
f 184/293/80 201/294/80 185/295/80
f 185/295/80 202/296/58 186/297/58
f 187/298/58 202/296/58 203/299/58
f 188/300/59 203/299/58 204/301/59
f 189/302/59 204/301/59 205/303/59
f 190/304/58 205/303/59 206/305/58
f 190/306/58 207/307/59 191/308/59
f 191/308/59 208/309/58 192/310/58
f 192/310/58 209/311/58 193/312/58
f 179/281/58 209/311/58 195/313/59
f 223/314/103 224/315/104 226/316/58
f 180/317/68 210/318/65 178/319/65
f 188/320/62 219/321/63 187/248/63
f 181/322/71 212/323/68 180/317/68
f 189/324/66 220/325/105 188/320/62
f 182/326/70 213/327/71 181/322/71
f 190/328/69 221/329/66 189/324/66
f 183/330/83 214/331/70 182/326/70
f 191/332/84 222/333/69 190/328/69
f 183/330/83 216/334/75 215/335/83
f 192/336/74 223/337/84 191/338/84
f 184/339/85 217/340/61 216/334/75
f 193/341/76 224/342/74 192/336/74
f 186/250/79 217/340/61 185/343/61
f 178/319/65 211/344/78 179/345/78
f 179/345/78 225/346/76 193/341/76
f 216/347/106 217/348/107 226/316/58
f 224/315/104 225/349/108 226/316/58
f 217/348/107 218/350/109 226/316/58
f 211/351/110 210/352/111 226/316/58
f 225/349/108 211/351/110 226/316/58
f 218/350/109 219/353/112 226/316/58
f 210/352/111 212/354/113 226/316/58
f 219/353/112 220/355/114 226/316/58
f 212/354/113 213/356/115 226/316/58
f 220/355/114 221/357/116 226/316/58
f 213/356/115 214/358/117 226/316/58
f 221/357/116 222/359/118 226/316/58
f 214/358/117 215/360/119 226/316/58
f 222/359/118 223/314/103 226/316/58
f 215/360/119 216/347/106 226/316/58
f 227/361/120 230/362/120 229/363/120
f 230/362/121 233/364/121 229/363/121
f 234/365/122 231/366/122 233/367/122
f 232/368/123 227/361/123 231/366/123
f 233/369/78 227/369/78 229/369/78
f 2/1/1 4/11/1 3/2/1
f 8/4/2 6/12/2 5/5/2
f 6/7/3 2/370/3 1/8/3
f 7/10/4 5/371/4 1/3/4
f 4/11/5 2/1/5 6/12/5
f 13/13/1 14/372/1 10/14/1
f 18/18/4 13/373/8 15/374/8
f 15/374/8 21/375/4 18/18/4
f 21/375/4 22/16/4 18/18/4
f 15/19/2 16/376/2 24/20/6
f 11/22/7 15/377/8 13/23/8
f 12/14/2 16/372/2 15/13/2
f 23/25/9 20/28/10 17/26/10
f 20/28/10 19/30/11 18/29/11
f 22/27/9 21/21/6 24/20/6
f 19/30/11 14/378/1 13/31/1
f 32/32/12 34/55/24 41/33/13
f 27/35/15 34/45/24 32/36/12
f 25/38/17 33/379/25 38/39/18
f 30/41/20 37/48/26 36/42/21
f 28/44/23 35/49/27 34/45/24
f 26/37/16 32/36/12 33/46/25
f 31/40/19 38/39/18 37/48/26
f 29/43/22 36/42/21 35/49/27
f 33/50/25 40/57/31 45/51/28
f 36/53/21 37/55/26 44/33/29
f 35/53/27 42/54/32 41/33/13
f 32/56/12 39/380/14 40/57/31
f 38/32/18 45/34/28 44/33/29
f 35/58/27 36/381/21 43/59/30
f 50/61/33 52/73/37 53/62/34
f 48/64/36 49/74/39 53/65/34
f 46/67/38 47/75/40 50/68/33
f 49/70/39 46/76/38 51/69/35
f 48/71/36 52/66/37 50/68/33
f 58/61/34 59/63/35 61/62/33
f 56/64/36 60/66/37 61/65/33
f 59/69/35 58/68/34 55/75/39
f 57/70/40 61/65/33 59/69/35
f 58/68/34 60/66/37 56/71/36
f 66/61/33 67/63/37 69/62/41
f 68/66/35 69/65/41 65/74/39
f 67/69/37 66/68/33 63/75/40
f 65/70/39 69/65/41 67/69/37
f 66/68/33 68/66/35 64/71/38
f 74/61/34 76/73/35 77/62/42
f 73/74/40 77/65/42 76/66/35
f 71/75/39 74/68/34 75/69/37
f 73/70/40 70/76/36 75/69/37
f 72/71/38 76/66/35 74/68/34
f 16/78/5 12/382/5 10/383/5
f 14/79/5 19/384/5 24/77/5
f 19/384/5 20/385/5 23/386/5
f 16/78/5 10/383/5 14/79/5
f 23/386/5 24/77/5 19/384/5
f 94/80/43 91/387/43 81/81/44
f 97/83/45 87/388/46 82/84/46
f 78/86/47 79/97/47 83/87/48
f 83/389/124 79/390/50 82/391/50
f 79/390/50 80/392/124 81/393/50
f 91/90/50 79/89/50 81/394/50
f 91/395/50 90/396/124 89/397/50
f 89/397/50 93/398/50 92/399/50
f 92/400/50 82/401/50 89/91/50
f 89/91/50 82/401/50 79/89/50
f 87/92/46 86/88/49 83/87/48
f 81/94/44 80/402/125 85/95/51
f 85/95/51 80/402/125 79/97/52
f 93/98/53 89/403/54 88/99/54
f 93/98/53 96/100/55 97/101/45
f 95/103/56 90/106/56 91/104/43
f 88/99/57 89/403/57 90/106/56
f 96/404/59 88/107/58 97/405/58
f 88/107/58 95/406/80 94/407/80
f 84/108/59 88/107/58 94/407/80
f 84/108/59 85/408/59 78/109/58
f 78/109/58 86/409/80 87/410/58
f 87/410/58 97/405/58 78/109/58
f 78/109/58 97/405/58 88/107/58
f 122/110/60 170/188/82 169/111/61
f 100/113/62 132/120/62 130/114/63
f 108/116/64 140/122/68 139/117/65
f 101/119/66 133/124/66 132/120/62
f 109/121/67 141/126/71 140/122/68
f 102/123/69 134/128/69 133/124/66
f 110/125/70 142/130/70 141/126/71
f 103/127/72 135/132/72 134/128/69
f 111/129/73 143/134/73 142/130/70
f 104/131/74 136/411/77 135/132/72
f 112/133/75 144/139/75 143/134/73
f 105/135/76 137/141/76 136/136/77
f 113/138/61 145/144/61 144/139/75
f 106/140/78 138/145/78 137/141/76
f 99/115/63 130/114/63 131/142/79
f 113/138/61 98/143/60 131/142/79
f 107/118/65 139/117/65 138/145/78
f 114/146/58 115/178/58 131/147/58
f 116/149/59 114/146/58 130/148/59
f 117/151/80 116/149/59 132/150/59
f 117/151/80 133/152/80 134/153/58
f 119/155/58 118/154/58 134/153/58
f 120/157/80 119/412/58 135/158/59
f 120/157/80 136/159/80 137/160/80
f 121/161/58 137/160/80 138/162/58
f 123/164/58 122/163/58 138/162/58
f 124/166/59 123/164/58 139/165/59
f 124/166/59 140/167/59 141/168/58
f 125/169/58 141/168/58 142/170/58
f 127/172/59 126/171/58 142/170/58
f 127/172/59 143/173/59 144/174/80
f 128/175/80 144/174/80 145/176/80
f 129/177/58 145/176/80 131/147/58
f 148/179/62 196/255/62 194/180/63
f 115/182/78 114/190/65 162/183/65
f 115/182/78 163/184/81 177/185/76
f 123/187/63 171/192/63 170/188/82
f 116/189/68 164/413/68 162/183/65
f 124/191/62 172/414/62 171/192/63
f 117/193/67 165/200/71 164/194/68
f 125/196/66 173/202/66 172/197/62
f 118/199/70 166/204/70 165/200/71
f 126/201/69 174/206/69 173/202/66
f 119/203/83 167/208/83 166/204/70
f 127/205/84 175/210/84 174/206/69
f 120/207/85 168/415/85 167/208/83
f 128/209/74 176/416/74 175/210/84
f 121/112/61 169/111/61 168/211/85
f 129/186/76 177/185/76 176/213/74
f 147/215/86 163/247/86 162/216/87
f 146/217/87 162/216/87 164/218/88
f 148/219/88 164/218/88 165/220/89
f 149/221/89 165/220/89 166/222/90
f 151/224/91 150/223/90 166/222/90
f 151/224/91 167/225/91 168/226/92
f 153/228/93 152/227/92 168/226/92
f 154/230/94 153/228/93 169/229/93
f 154/230/94 170/231/94 171/232/95
f 155/233/95 171/232/95 172/234/96
f 157/236/98 156/235/97 172/234/96
f 158/238/99 157/236/98 173/237/98
f 159/240/100 158/417/99 174/241/99
f 160/243/101 159/240/100 175/242/100
f 160/243/101 176/244/101 177/245/102
f 147/215/86 161/246/102 177/245/102
f 187/248/63 219/321/63 218/249/79
f 156/251/68 204/257/68 203/252/65
f 149/254/66 197/259/66 196/255/62
f 157/256/71 205/261/71 204/257/68
f 150/258/69 198/263/69 197/259/66
f 158/260/70 206/418/70 205/261/71
f 151/262/84 199/268/84 198/263/69
f 159/264/83 207/270/83 206/265/70
f 152/267/74 200/272/77 199/268/84
f 160/269/85 208/274/85 207/270/83
f 153/271/76 201/276/76 200/272/77
f 161/273/61 209/279/61 208/274/85
f 154/275/78 202/280/78 201/276/76
f 146/181/63 194/180/63 195/277/79
f 147/278/79 195/277/79 209/279/61
f 155/253/65 203/252/65 202/280/78
f 179/281/58 195/313/59 194/282/58
f 180/284/58 178/283/58 194/282/58
f 181/286/80 180/284/58 196/285/58
f 182/288/80 181/286/80 197/287/80
f 182/288/80 198/289/80 199/290/80
f 183/291/80 199/290/80 200/292/80
f 184/293/80 200/292/80 201/294/80
f 185/295/80 201/294/80 202/296/58
f 187/298/58 186/297/58 202/296/58
f 188/300/59 187/298/58 203/299/58
f 189/302/59 188/300/59 204/301/59
f 190/304/58 189/302/59 205/303/59
f 190/306/58 206/419/58 207/307/59
f 191/308/59 207/307/59 208/309/58
f 192/310/58 208/309/58 209/311/58
f 179/281/58 193/312/58 209/311/58
f 180/317/68 212/323/68 210/318/65
f 188/320/62 220/325/105 219/321/63
f 181/322/71 213/327/71 212/323/68
f 189/324/66 221/329/66 220/325/105
f 182/326/70 214/331/70 213/327/71
f 190/328/69 222/333/69 221/329/66
f 183/330/83 215/335/83 214/331/70
f 191/332/84 223/420/84 222/333/69
f 183/330/83 184/339/85 216/334/75
f 192/336/74 224/342/74 223/337/84
f 184/339/85 185/343/61 217/340/61
f 193/341/76 225/346/76 224/342/74
f 186/250/79 218/249/79 217/340/61
f 178/319/65 210/318/65 211/344/78
f 179/345/78 211/344/78 225/346/76
f 227/361/120 228/421/120 230/362/120
f 230/362/121 234/422/121 233/364/121
f 234/365/122 232/368/122 231/366/122
f 232/368/123 228/421/123 227/361/123
f 233/369/78 231/369/78 227/369/78
